<svg xmlns="http://www.w3.org/2000/svg" viewBox="0 0 1400 900" role="img" aria-labelledby="title desc">
  <title id="title">Premium corporate technology workspace</title>
  <desc id="desc">Abstract modern office scene with dashboard panels, people silhouettes, and blue cyan lighting.</desc>
  <defs>
    <linearGradient id="bg" x1="0" y1="0" x2="1" y2="1">
      <stop offset="0" stop-color="#071b45"/>
      <stop offset="0.48" stop-color="#0b42c6"/>
      <stop offset="1" stop-color="#11c5f3"/>
    </linearGradient>
    <linearGradient id="panel" x1="0" y1="0" x2="1" y2="1">
      <stop offset="0" stop-color="#ffffff" stop-opacity="0.96"/>
      <stop offset="1" stop-color="#dff8ff" stop-opacity="0.72"/>
    </linearGradient>
    <filter id="shadow" x="-20%" y="-20%" width="140%" height="140%">
      <feDropShadow dx="0" dy="26" stdDeviation="24" flood-color="#071b45" flood-opacity="0.26"/>
    </filter>
  </defs>
  <rect width="1400" height="900" fill="url(#bg)"/>
  <path d="M0 670C188 554 362 538 520 620c144 74 304 108 480 34 155-65 286-46 400 46v200H0Z" fill="#ffffff" opacity="0.1"/>
  <g opacity="0.16" stroke="#ffffff">
    <path d="M140 160h1120M140 280h1120M140 400h1120M140 520h1120"/>
    <path d="M260 90v600M500 90v600M740 90v600M980 90v600M1220 90v600"/>
  </g>
  <g filter="url(#shadow)">
    <rect x="160" y="170" width="430" height="270" rx="22" fill="url(#panel)"/>
    <rect x="205" y="225" width="160" height="18" rx="9" fill="#155eef" opacity="0.9"/>
    <rect x="205" y="272" width="310" height="14" rx="7" fill="#64748b" opacity="0.28"/>
    <rect x="205" y="313" width="250" height="14" rx="7" fill="#64748b" opacity="0.22"/>
    <rect x="205" y="354" width="340" height="14" rx="7" fill="#64748b" opacity="0.18"/>
    <circle cx="500" cy="240" r="46" fill="#11c5f3" opacity="0.85"/>
    <path d="M480 241l16 16 31-43" stroke="#fff" stroke-width="12" stroke-linecap="round" stroke-linejoin="round"/>
  </g>
  <g filter="url(#shadow)">
    <rect x="720" y="140" width="510" height="360" rx="24" fill="#ffffff" opacity="0.9"/>
    <rect x="780" y="205" width="120" height="170" rx="12" fill="#155eef" opacity="0.85"/>
    <rect x="930" y="255" width="120" height="120" rx="12" fill="#11c5f3" opacity="0.72"/>
    <rect x="1080" y="185" width="90" height="190" rx="12" fill="#7c5cff" opacity="0.78"/>
    <rect x="780" y="405" width="380" height="18" rx="9" fill="#071b45" opacity="0.14"/>
  </g>
  <g filter="url(#shadow)">
    <rect x="338" y="540" width="720" height="210" rx="26" fill="#ffffff" opacity="0.88"/>
    <circle cx="450" cy="632" r="42" fill="#155eef"/>
    <path d="M386 713c16-49 112-49 128 0" fill="#155eef"/>
    <circle cx="698" cy="632" r="42" fill="#11c5f3"/>
    <path d="M634 713c16-49 112-49 128 0" fill="#11c5f3"/>
    <circle cx="946" cy="632" r="42" fill="#7c5cff"/>
    <path d="M882 713c16-49 112-49 128 0" fill="#7c5cff"/>
    <rect x="520" y="590" width="112" height="14" rx="7" fill="#071b45" opacity="0.16"/>
    <rect x="768" y="590" width="112" height="14" rx="7" fill="#071b45" opacity="0.16"/>
  </g>
</svg>
